<?xml version="1.0" encoding="UTF-8" standalone="no" ?>
<!DOCTYPE svg PUBLIC "-//W3C//DTD SVG 1.1//EN" "http://www.w3.org/Graphics/SVG/1.1/DTD/svg11.dtd">
<svg xmlns="http://www.w3.org/2000/svg" xmlns:xlink="http://www.w3.org/1999/xlink" version="1.1" width="640" height="640" viewBox="0 0 640 640" xml:space="preserve">
<desc>Created with Fabric.js 4.6.0</desc>
<defs>
</defs>
<g transform="matrix(3.46 0 0 3.46 320 320)" id="vNT7p6l4qybjkOa-f0h9z"  >
<path style="stroke: rgb(171,74,125); stroke-width: 0; stroke-dasharray: none; stroke-linecap: butt; stroke-dashoffset: 0; stroke-linejoin: miter; stroke-miterlimit: 4; fill: rgb(255,255,255); fill-rule: nonzero; opacity: 1;" vector-effect="non-scaling-stroke"  transform=" translate(0, 0)" d="M -86.66666 -86.66666 L 86.66667 -86.66666 L 86.66667 86.66667 L -86.66666 86.66667 z" stroke-linecap="round" />
</g>
<g transform="matrix(1 0 0 1 347.5 330)" style="" id="X7onHaqGVE3b1TRjeg2n4"  >
		<text xml:space="preserve" font-family="Open Sans" font-size="327" font-style="normal" font-weight="600" letter-spacing="0.654" line-height="1" style="stroke: rgb(0,0,0); stroke-width: 0; stroke-dasharray: none; stroke-linecap: butt; stroke-dashoffset: 0; stroke-linejoin: miter; stroke-miterlimit: 4; fill: rgb(0,0,0); fill-rule: nonzero; opacity: 1; white-space: pre;" ><tspan x="-262.43" y="102.76" >J</tspan><tspan x="-163.74" y="102.76" >S</tspan><tspan x="16.7" y="102.76" >H</tspan></text>
</g>
<g transform="matrix(4.26 0 0 0.24 380 510)" id="YlgY1sUtpTmANV5nffvO8"  >
<path style="stroke: rgb(83,29,16); stroke-width: 0; stroke-dasharray: none; stroke-linecap: butt; stroke-dashoffset: 0; stroke-linejoin: miter; stroke-miterlimit: 4; fill: rgb(255,51,51); fill-rule: nonzero; opacity: 1;" vector-effect="non-scaling-stroke"  transform=" translate(0, 0)" d="M -42.22222 -42.22222 L 42.22222 -42.22222 L 42.22222 42.22222 L -42.22222 42.22222 z" stroke-linecap="round" />
</g>
<g transform="matrix(0.71 -0.68 -0.16 -0.17 176.57 535.62)" id="yPwP4cCscrWao3pJWCRf_"  >
<path style="stroke: rgb(83,29,16); stroke-width: 0; stroke-dasharray: none; stroke-linecap: butt; stroke-dashoffset: 0; stroke-linejoin: miter; stroke-miterlimit: 4; fill: rgb(255,51,51); fill-rule: nonzero; opacity: 1;" vector-effect="non-scaling-stroke"  transform=" translate(0, 0)" d="M -42.22222 -42.22222 L 42.22222 -42.22222 L 42.22222 42.22222 L -42.22222 42.22222 z" stroke-linecap="round" />
</g>
<g transform="matrix(2.37 0 0 0.24 320.1 550.13)" id="1YyFPFheCdgNDocBus781"  >
<path style="stroke: rgb(83,29,16); stroke-width: 0; stroke-dasharray: none; stroke-linecap: butt; stroke-dashoffset: 0; stroke-linejoin: miter; stroke-miterlimit: 4; fill: rgb(255,51,51); fill-rule: nonzero; opacity: 1;" vector-effect="non-scaling-stroke"  transform=" translate(0, 0)" d="M -42.22222 -42.22222 L 42.22222 -42.22222 L 42.22222 42.22222 L -42.22222 42.22222 z" stroke-linecap="round" />
</g>
<g transform="matrix(0.95 0 0 0.24 280 590.13)" id="YwMA-AujACaySWX-oouIV"  >
<path style="stroke: rgb(83,29,16); stroke-width: 0; stroke-dasharray: none; stroke-linecap: butt; stroke-dashoffset: 0; stroke-linejoin: miter; stroke-miterlimit: 4; fill: rgb(255,51,51); fill-rule: nonzero; opacity: 1;" vector-effect="non-scaling-stroke"  transform=" translate(0, 0)" d="M -42.22222 -42.22222 L 42.22222 -42.22222 L 42.22222 42.22222 L -42.22222 42.22222 z" stroke-linecap="round" />
</g>
<g transform="matrix(0.24 0 0 0.97 150.13 599)" id="xXX-STyg8VG_CfL6iE3dL"  >
<path style="stroke: rgb(83,29,16); stroke-width: 0; stroke-dasharray: none; stroke-linecap: butt; stroke-dashoffset: 0; stroke-linejoin: miter; stroke-miterlimit: 4; fill: rgb(255,51,51); fill-rule: nonzero; opacity: 1;" vector-effect="non-scaling-stroke"  transform=" translate(0, 0)" d="M -42.22222 -42.22222 L 42.22222 -42.22222 L 42.22222 42.22222 L -42.22222 42.22222 z" stroke-linecap="round" />
</g>
<g transform="matrix(0.24 0 0 0.47 230.13 620)" id="4q3L4OfrqijzlnxcMg3yF"  >
<path style="stroke: rgb(83,29,16); stroke-width: 0; stroke-dasharray: none; stroke-linecap: butt; stroke-dashoffset: 0; stroke-linejoin: miter; stroke-miterlimit: 4; fill: rgb(255,51,51); fill-rule: nonzero; opacity: 1;" vector-effect="non-scaling-stroke"  transform=" translate(0, 0)" d="M -42.22222 -42.22222 L 42.22222 -42.22222 L 42.22222 42.22222 L -42.22222 42.22222 z" stroke-linecap="round" />
</g>
<g transform="matrix(0.24 0 0 0.71 190.33 610)" id="HJvjTN4397llmrLR-Jupq"  >
<path style="stroke: rgb(83,29,16); stroke-width: 0; stroke-dasharray: none; stroke-linecap: butt; stroke-dashoffset: 0; stroke-linejoin: miter; stroke-miterlimit: 4; fill: rgb(255,51,51); fill-rule: nonzero; opacity: 1;" vector-effect="non-scaling-stroke"  transform=" translate(0, 0)" d="M -42.22222 -42.22222 L 42.22222 -42.22222 L 42.22222 42.22222 L -42.22222 42.22222 z" stroke-linecap="round" />
</g>
<g transform="matrix(6.64 0 0 0.21 320 630.13)" id="IWB0QSEEUheFhMlW1_ltR"  >
<path style="stroke: rgb(255,51,51); stroke-width: 0; stroke-dasharray: none; stroke-linecap: butt; stroke-dashoffset: 0; stroke-linejoin: miter; stroke-miterlimit: 4; fill: rgb(0,0,0); fill-rule: nonzero; opacity: 1;" vector-effect="non-scaling-stroke"  transform=" translate(0, 0)" d="M -48.22427 -48.22427 L 48.22427 -48.22427 L 48.22427 48.22427 L -48.22427 48.22427 z" stroke-linecap="round" />
</g>
<g transform="matrix(0.12 0.21 -1.07 0.62 180 94.9)" id="RdHJGQ1O4a-ON2PB-SUTs"  >
<path style="stroke: rgb(83,29,16); stroke-width: 0; stroke-dasharray: none; stroke-linecap: butt; stroke-dashoffset: 0; stroke-linejoin: miter; stroke-miterlimit: 4; fill: rgb(255,51,51); fill-rule: nonzero; opacity: 1;" vector-effect="non-scaling-stroke"  transform=" translate(0, 0)" d="M -42.22222 -42.22222 L 42.22222 -42.22222 L 42.22222 42.22222 L -42.22222 42.22222 z" stroke-linecap="round" />
</g>
<g transform="matrix(4.97 0 0 0.24 430 70.13)" id="5_m3EyonHl7Boc6-ZULnW"  >
<path style="stroke: rgb(83,29,16); stroke-width: 0; stroke-dasharray: none; stroke-linecap: butt; stroke-dashoffset: 0; stroke-linejoin: miter; stroke-miterlimit: 4; fill: rgb(255,51,51); fill-rule: nonzero; opacity: 1;" vector-effect="non-scaling-stroke"  transform=" translate(0, 0)" d="M -42.22222 -42.22222 L 42.22222 -42.22222 L 42.22222 42.22222 L -42.22222 42.22222 z" stroke-linecap="round" />
</g>
<g transform="matrix(0.48 -0.46 -0.17 -0.17 207.21 566.76)" id="eTSiAOeKzXFrriJx_5Q7I"  >
<path style="stroke: rgb(83,29,16); stroke-width: 0; stroke-dasharray: none; stroke-linecap: butt; stroke-dashoffset: 0; stroke-linejoin: miter; stroke-miterlimit: 4; fill: rgb(255,51,51); fill-rule: nonzero; opacity: 1;" vector-effect="non-scaling-stroke"  transform=" translate(0, 0)" d="M -42.22222 -42.22222 L 42.22222 -42.22222 L 42.22222 42.22222 L -42.22222 42.22222 z" stroke-linecap="round" />
</g>
<g transform="matrix(0.23 -0.22 -0.17 -0.17 236.65 596.73)" id="EKZLq_UEGki5UaGxxcppO"  >
<path style="stroke: rgb(83,29,16); stroke-width: 0; stroke-dasharray: none; stroke-linecap: butt; stroke-dashoffset: 0; stroke-linejoin: miter; stroke-miterlimit: 4; fill: rgb(255,51,51); fill-rule: nonzero; opacity: 1;" vector-effect="non-scaling-stroke"  transform=" translate(0, 0)" d="M -42.22222 -42.22222 L 42.22222 -42.22222 L 42.22222 42.22222 L -42.22222 42.22222 z" stroke-linecap="round" />
</g>
<g transform="matrix(3.55 0 0 0.24 490 110.13)" id="wTV9jAVy2k9Iw5R8IkavI"  >
<path style="stroke: rgb(83,29,16); stroke-width: 0; stroke-dasharray: none; stroke-linecap: butt; stroke-dashoffset: 0; stroke-linejoin: miter; stroke-miterlimit: 4; fill: rgb(255,51,51); fill-rule: nonzero; opacity: 1;" vector-effect="non-scaling-stroke"  transform=" translate(0, 0)" d="M -42.22222 -42.22222 L 42.22222 -42.22222 L 42.22222 42.22222 L -42.22222 42.22222 z" stroke-linecap="round" />
</g>
<g transform="matrix(1.89 0 0 0.24 560 150.13)" id="pL1AlrOAfLtyxmojmP9f4"  >
<path style="stroke: rgb(83,29,16); stroke-width: 0; stroke-dasharray: none; stroke-linecap: butt; stroke-dashoffset: 0; stroke-linejoin: miter; stroke-miterlimit: 4; fill: rgb(255,51,51); fill-rule: nonzero; opacity: 1;" vector-effect="non-scaling-stroke"  transform=" translate(0, 0)" d="M -42.22222 -42.22222 L 42.22222 -42.22222 L 42.22222 42.22222 L -42.22222 42.22222 z" stroke-linecap="round" />
</g>
<g transform="matrix(0.22 0 0 6.64 630.11 320.21)" id="dF4sJWNLqlx1eSJh-GLTW"  >
<path style="stroke: rgb(0,0,0); stroke-width: 0; stroke-dasharray: none; stroke-linecap: butt; stroke-dashoffset: 0; stroke-linejoin: miter; stroke-miterlimit: 4; fill: rgb(0,0,0); fill-rule: nonzero; opacity: 1;" vector-effect="non-scaling-stroke"  transform=" translate(0, 0)" d="M -48.22427 -48.22427 L 48.22427 -48.22427 L 48.22427 48.22427 L -48.22427 48.22427 z" stroke-linecap="round" />
</g>
<g transform="matrix(0.21 0 0 6.64 10 320)" id="IHmQTS7naVcFBVuIEWAJe"  >
<path style="stroke: rgb(255,51,51); stroke-width: 0; stroke-dasharray: none; stroke-linecap: butt; stroke-dashoffset: 0; stroke-linejoin: miter; stroke-miterlimit: 4; fill: rgb(0,0,0); fill-rule: nonzero; opacity: 1;" vector-effect="non-scaling-stroke"  transform=" translate(0, 0)" d="M -48.22427 -48.22427 L 48.22427 -48.22427 L 48.22427 48.22427 L -48.22427 48.22427 z" stroke-linecap="round" />
</g>
<g transform="matrix(6.64 0 0 0.21 320 10)" id="SEtWUW0tfanGWprnIQIzX"  >
<path style="stroke: rgb(255,51,51); stroke-width: 0; stroke-dasharray: none; stroke-linecap: butt; stroke-dashoffset: 0; stroke-linejoin: miter; stroke-miterlimit: 4; fill: rgb(0,0,0); fill-rule: nonzero; opacity: 1;" vector-effect="non-scaling-stroke"  transform=" translate(0, 0)" d="M -48.22427 -48.22427 L 48.22427 -48.22427 L 48.22427 48.22427 L -48.22427 48.22427 z" stroke-linecap="round" />
</g>
<g transform="matrix(1 0 0 1 560 510.22)" id="OGoEst9SosYQuBJA5WyWC"  >
<path style="stroke: rgb(210,136,114); stroke-width: 0; stroke-dasharray: none; stroke-linecap: butt; stroke-dashoffset: 0; stroke-linejoin: miter; stroke-miterlimit: 4; fill: rgb(255,51,51); fill-rule: nonzero; opacity: 1;" vector-effect="non-scaling-stroke"  transform=" translate(-30.22, -30.22)" d="M 30.22222 0 C 46.90489 0 60.44444 13.53956 60.44444 30.22222 C 60.44444 46.90489 46.90488 60.44444 30.22222 60.44444 C 13.539549999999998 60.44444 0 46.90488 0 30.22222 C 0 13.539549999999998 13.53956 0 30.22222 0 z" stroke-linecap="round" />
</g>
<g transform="matrix(0.75 0 0 0.75 560.06 511.05)" id="QM74UeLCHu99r8jde5IGR"  >
<path style="stroke: rgb(169,84,128); stroke-width: 0; stroke-dasharray: none; stroke-linecap: butt; stroke-dashoffset: 0; stroke-linejoin: miter; stroke-miterlimit: 4; fill: rgb(255,255,255); fill-rule: nonzero; opacity: 1;" vector-effect="non-scaling-stroke"  transform=" translate(0, 0)" d="M 0 -24.44444 C 13.49333 -24.44444 24.44444 -13.49333 24.44444 0 C 24.44444 13.49333 13.49333 24.44444 0 24.44444 C -13.49333 24.44444 -24.44444 13.49333 -24.44444 0 C -24.44444 -13.49333 -13.49333 -24.44444 0 -24.44444 z" stroke-linecap="round" />
</g>
<g transform="matrix(1 0 0 1 135.11 125.34)" id="L_3aTyygPtpo-6u1FmsMP"  >
<path style="stroke: rgb(210,136,114); stroke-width: 0; stroke-dasharray: none; stroke-linecap: butt; stroke-dashoffset: 0; stroke-linejoin: miter; stroke-miterlimit: 4; fill: rgb(255,51,51); fill-rule: nonzero; opacity: 1;" vector-effect="non-scaling-stroke"  transform=" translate(-30.22, -30.22)" d="M 30.22222 0 C 46.90489 0 60.44444 13.53956 60.44444 30.22222 C 60.44444 46.90489 46.90488 60.44444 30.22222 60.44444 C 13.539549999999998 60.44444 0 46.90488 0 30.22222 C 0 13.539549999999998 13.53956 0 30.22222 0 z" stroke-linecap="round" />
</g>
<g transform="matrix(0.75 0 0 0.75 135.17 126.17)" id="0ysgnb4X_nxfUH3bSE-Hd"  >
<path style="stroke: rgb(169,84,128); stroke-width: 0; stroke-dasharray: none; stroke-linecap: butt; stroke-dashoffset: 0; stroke-linejoin: miter; stroke-miterlimit: 4; fill: rgb(255,255,255); fill-rule: nonzero; opacity: 1;" vector-effect="non-scaling-stroke"  transform=" translate(0, 0)" d="M 0 -24.44444 C 13.49333 -24.44444 24.44444 -13.49333 24.44444 0 C 24.44444 13.49333 13.49333 24.44444 0 24.44444 C -13.49333 24.44444 -24.44444 13.49333 -24.44444 0 C -24.44444 -13.49333 -13.49333 -24.44444 0 -24.44444 z" stroke-linecap="round" />
</g>
</svg>